<mxfile host="app.diagrams.net" modified="2024-07-07T02:13:46.532Z" agent="Mozilla/5.0 (Windows NT 10.0; Win64; x64) AppleWebKit/537.36 (KHTML, like Gecko) Chrome/126.0.0.0 Safari/537.36 Edg/126.0.0.0" version="24.4.13" etag="JPQvlcCzi-_VWSDtoTam" type="github">
  <diagram name="Page-1" id="uR1c8cpcf06vIAg7Qv3h">
    <mxGraphModel>
      <root>
        <mxCell id="0" />
        <mxCell id="1" parent="0" />
      </root>
    </mxGraphModel>
  </diagram>
</mxfile>
